<?xml version="1.0" standalone="no"?><!DOCTYPE svg PUBLIC "-//W3C//DTD SVG 1.1//EN" "http://www.w3.org/Graphics/SVG/1.1/DTD/svg11.dtd"><svg t="1768487858038" class="icon" viewBox="0 0 1024 1024" version="1.1" xmlns="http://www.w3.org/2000/svg" p-id="22505" xmlns:xlink="http://www.w3.org/1999/xlink" width="200" height="200"><path d="M511.806488 1023.67748a511.83874 511.83874 0 1 1 511.903244-511.83874 511.774236 511.774236 0 0 1-511.903244 511.83874z m191.866961-539.252913a119.848315 119.848315 0 0 0 60.923968-101.916221c0-71.59937-70.696315-133.52315-159.034456-133.523149h-13.965103v-116.107087H521.83685v116.107087h-55.795905v-116.107087h-69.728756v116.107087H256.822425v75.469606h57.763276a30.736126 30.736126 0 0 1 30.607118 30.63937v306.071181a30.510362 30.510362 0 0 1-30.607118 30.63937H268.916913l-10.288378 81.92h137.683654v117.074646h69.761008v-117.074646h55.795905v117.074646h69.761008v-117.074646h11.094677c104.625386 0 199.962205-52.248189 199.962205-167.065196a123.36378 123.36378 0 0 0-99.013543-122.234961z m-169.258331 207.380157h-68.374173v-155.131968h75.69537c54.828346 1.290079 122.55748 13.868346 122.55748 82.24252 0.096756 59.988661-81.984504 72.889449-129.878677 72.889448z m-8.901543-223.506141H466.040945v-143.84378h61.27874c21.479811 0 100.658394 3.547717 103.206299 67.406614s-55.731402 76.437165-105.012409 76.437166z" fill="#EA8B3E" p-id="22506"></path></svg>