<svg xmlns="http://www.w3.org/2000/svg" xmlns:xlink="http://www.w3.org/1999/xlink" width="200" zoomAndPan="magnify" viewBox="0 0 150 149.999998" height="200" preserveAspectRatio="xMidYMid meet" version="1.0"><defs><clipPath id="c655bfdc8d"><path d="M 9.300781 7.5 L 144.300781 7.5 L 144.300781 142.5 L 9.300781 142.5 Z M 9.300781 7.5 " clip-rule="nonzero"/></clipPath><clipPath id="c01210c9a0"><path d="M 76.800781 7.5 C 39.519531 7.5 9.300781 37.722656 9.300781 75 C 9.300781 112.277344 39.519531 142.5 76.800781 142.5 C 114.078125 142.5 144.300781 112.277344 144.300781 75 C 144.300781 37.722656 114.078125 7.5 76.800781 7.5 Z M 76.800781 7.5 " clip-rule="nonzero"/></clipPath><clipPath id="977035c601"><path d="M 0.300781 0.5 L 135.300781 0.5 L 135.300781 135.5 L 0.300781 135.5 Z M 0.300781 0.5 " clip-rule="nonzero"/></clipPath><clipPath id="1d0e11a2b7"><path d="M 67.800781 0.5 C 30.519531 0.5 0.300781 30.722656 0.300781 68 C 0.300781 105.277344 30.519531 135.5 67.800781 135.5 C 105.078125 135.5 135.300781 105.277344 135.300781 68 C 135.300781 30.722656 105.078125 0.5 67.800781 0.5 Z M 67.800781 0.5 " clip-rule="nonzero"/></clipPath><clipPath id="9aa19883bc"><rect x="0" width="136" y="0" height="136"/></clipPath><clipPath id="87ca05a9f1"><path d="M 25.96875 51.632812 L 75 51.632812 L 75 98.367188 L 25.96875 98.367188 Z M 25.96875 51.632812 " clip-rule="nonzero"/></clipPath><clipPath id="03c48a2110"><path d="M 50.484375 51.632812 L 56.273438 69.484375 L 75 69.484375 L 59.847656 80.515625 L 65.636719 98.367188 L 50.484375 87.335938 L 35.332031 98.367188 L 41.121094 80.515625 L 25.96875 69.484375 L 44.699219 69.484375 Z M 50.484375 51.632812 " clip-rule="nonzero"/></clipPath><clipPath id="4b2355434a"><path d="M 0.96875 0.632812 L 50 0.632812 L 50 47.367188 L 0.96875 47.367188 Z M 0.96875 0.632812 " clip-rule="nonzero"/></clipPath><clipPath id="f69179c1d0"><path d="M 25.484375 0.632812 L 31.273438 18.484375 L 50 18.484375 L 34.847656 29.515625 L 40.636719 47.367188 L 25.484375 36.335938 L 10.332031 47.367188 L 16.121094 29.515625 L 0.96875 18.484375 L 19.699219 18.484375 Z M 25.484375 0.632812 " clip-rule="nonzero"/></clipPath><clipPath id="6993d5593a"><rect x="0" width="50" y="0" height="48"/></clipPath><clipPath id="4c558fce53"><path d="M 75 20.257812 L 101.664062 20.257812 L 101.664062 45.632812 L 75 45.632812 Z M 75 20.257812 " clip-rule="nonzero"/></clipPath><clipPath id="74703eee59"><path d="M 88.3125 20.257812 L 91.453125 29.953125 L 101.621094 29.953125 L 93.394531 35.941406 L 96.539062 45.632812 L 88.3125 39.644531 L 80.085938 45.632812 L 83.226562 35.941406 L 75 29.953125 L 85.167969 29.953125 Z M 88.3125 20.257812 " clip-rule="nonzero"/></clipPath><clipPath id="4be5460fb2"><path d="M 0 0.257812 L 26.664062 0.257812 L 26.664062 25.632812 L 0 25.632812 Z M 0 0.257812 " clip-rule="nonzero"/></clipPath><clipPath id="2421d63603"><path d="M 13.3125 0.257812 L 16.453125 9.953125 L 26.621094 9.953125 L 18.394531 15.941406 L 21.539062 25.632812 L 13.3125 19.644531 L 5.085938 25.632812 L 8.226562 15.941406 L 0 9.953125 L 10.167969 9.953125 Z M 13.3125 0.257812 " clip-rule="nonzero"/></clipPath><clipPath id="35ecab1bc2"><rect x="0" width="27" y="0" height="26"/></clipPath><clipPath id="c748a972d4"><path d="M 92.703125 41.300781 L 119.367188 41.300781 L 119.367188 66.675781 L 92.703125 66.675781 Z M 92.703125 41.300781 " clip-rule="nonzero"/></clipPath><clipPath id="328c9eb8cf"><path d="M 106.015625 41.300781 L 109.15625 50.992188 L 119.328125 50.992188 L 111.097656 56.980469 L 114.242188 66.675781 L 106.015625 60.683594 L 97.789062 66.675781 L 100.929688 56.980469 L 92.703125 50.992188 L 102.871094 50.992188 Z M 106.015625 41.300781 " clip-rule="nonzero"/></clipPath><clipPath id="151073f06c"><path d="M 0.703125 0.300781 L 27.367188 0.300781 L 27.367188 25.675781 L 0.703125 25.675781 Z M 0.703125 0.300781 " clip-rule="nonzero"/></clipPath><clipPath id="b15a8ecf3c"><path d="M 14.015625 0.300781 L 17.15625 9.992188 L 27.328125 9.992188 L 19.097656 15.980469 L 22.242188 25.675781 L 14.015625 19.683594 L 5.789062 25.675781 L 8.929688 15.980469 L 0.703125 9.992188 L 10.871094 9.992188 Z M 14.015625 0.300781 " clip-rule="nonzero"/></clipPath><clipPath id="33183f5f6e"><rect x="0" width="28" y="0" height="26"/></clipPath><clipPath id="9736fda878"><path d="M 99.121094 72.992188 L 125.785156 72.992188 L 125.785156 98.367188 L 99.121094 98.367188 Z M 99.121094 72.992188 " clip-rule="nonzero"/></clipPath><clipPath id="428dd32207"><path d="M 112.433594 72.992188 L 115.574219 82.683594 L 125.746094 82.683594 L 117.519531 88.671875 L 120.660156 98.367188 L 112.433594 92.375 L 104.207031 98.367188 L 107.347656 88.671875 L 99.121094 82.683594 L 109.292969 82.683594 Z M 112.433594 72.992188 " clip-rule="nonzero"/></clipPath><clipPath id="a4a05ba95c"><path d="M 0.121094 0.992188 L 26.761719 0.992188 L 26.761719 26.367188 L 0.121094 26.367188 Z M 0.121094 0.992188 " clip-rule="nonzero"/></clipPath><clipPath id="d0d8095b8c"><path d="M 13.433594 0.992188 L 16.574219 10.683594 L 26.746094 10.683594 L 18.519531 16.671875 L 21.660156 26.367188 L 13.433594 20.375 L 5.207031 26.367188 L 8.347656 16.671875 L 0.121094 10.683594 L 10.292969 10.683594 Z M 13.433594 0.992188 " clip-rule="nonzero"/></clipPath><clipPath id="bd27015f5c"><rect x="0" width="27" y="0" height="27"/></clipPath><clipPath id="750ca3c699"><path d="M 83.417969 94.925781 L 110.082031 94.925781 L 110.082031 120.300781 L 83.417969 120.300781 Z M 83.417969 94.925781 " clip-rule="nonzero"/></clipPath><clipPath id="0feec643c3"><path d="M 96.730469 94.925781 L 99.875 104.617188 L 110.042969 104.617188 L 101.816406 110.605469 L 104.957031 120.300781 L 96.730469 114.308594 L 88.503906 120.300781 L 91.644531 110.605469 L 83.417969 104.617188 L 93.589844 104.617188 Z M 96.730469 94.925781 " clip-rule="nonzero"/></clipPath><clipPath id="2f589fb597"><path d="M 0.417969 0.925781 L 27.082031 0.925781 L 27.082031 26.300781 L 0.417969 26.300781 Z M 0.417969 0.925781 " clip-rule="nonzero"/></clipPath><clipPath id="1a1ac46613"><path d="M 13.730469 0.925781 L 16.875 10.617188 L 27.042969 10.617188 L 18.816406 16.605469 L 21.957031 26.300781 L 13.730469 20.308594 L 5.503906 26.300781 L 8.644531 16.605469 L 0.417969 10.617188 L 10.589844 10.617188 Z M 13.730469 0.925781 " clip-rule="nonzero"/></clipPath><clipPath id="58d73ada14"><rect x="0" width="28" y="0" height="27"/></clipPath></defs><g clip-path="url(#c655bfdc8d)"><g clip-path="url(#c01210c9a0)"><g transform="matrix(1, 0, 0, 1, 9, 7)"><g clip-path="url(#9aa19883bc)"><g clip-path="url(#977035c601)"><g clip-path="url(#1d0e11a2b7)"><path fill="#c41914" d="M 0.300781 0.5 L 135.300781 0.5 L 135.300781 135.5 L 0.300781 135.5 Z M 0.300781 0.5 " fill-opacity="1" fill-rule="nonzero"/></g></g></g></g></g></g><g clip-path="url(#87ca05a9f1)"><g clip-path="url(#03c48a2110)"><g transform="matrix(1, 0, 0, 1, 25, 51)"><g clip-path="url(#6993d5593a)"><g clip-path="url(#4b2355434a)"><g clip-path="url(#f69179c1d0)"><path fill="#ffd21f" d="M 0.96875 0.632812 L 50.074219 0.632812 L 50.074219 47.367188 L 0.96875 47.367188 Z M 0.96875 0.632812 " fill-opacity="1" fill-rule="nonzero"/></g></g></g></g></g></g><g clip-path="url(#4c558fce53)"><g clip-path="url(#74703eee59)"><g transform="matrix(1, 0, 0, 1, 75, 20)"><g clip-path="url(#35ecab1bc2)"><g clip-path="url(#4be5460fb2)"><g clip-path="url(#2421d63603)"><path fill="#ffd21f" d="M 0 0.257812 L 26.664062 0.257812 L 26.664062 25.632812 L 0 25.632812 Z M 0 0.257812 " fill-opacity="1" fill-rule="nonzero"/></g></g></g></g></g></g><g clip-path="url(#c748a972d4)"><g clip-path="url(#328c9eb8cf)"><g transform="matrix(1, 0, 0, 1, 92, 41)"><g clip-path="url(#33183f5f6e)"><g clip-path="url(#151073f06c)"><g clip-path="url(#b15a8ecf3c)"><path fill="#ffd21f" d="M 0.703125 0.300781 L 27.367188 0.300781 L 27.367188 25.675781 L 0.703125 25.675781 Z M 0.703125 0.300781 " fill-opacity="1" fill-rule="nonzero"/></g></g></g></g></g></g><g clip-path="url(#9736fda878)"><g clip-path="url(#428dd32207)"><g transform="matrix(1, 0, 0, 1, 99, 72)"><g clip-path="url(#bd27015f5c)"><g clip-path="url(#a4a05ba95c)"><g clip-path="url(#d0d8095b8c)"><path fill="#ffd21f" d="M 0.121094 0.992188 L 26.785156 0.992188 L 26.785156 26.367188 L 0.121094 26.367188 Z M 0.121094 0.992188 " fill-opacity="1" fill-rule="nonzero"/></g></g></g></g></g></g><g clip-path="url(#750ca3c699)"><g clip-path="url(#0feec643c3)"><g transform="matrix(1, 0, 0, 1, 83, 94)"><g clip-path="url(#58d73ada14)"><g clip-path="url(#2f589fb597)"><g clip-path="url(#1a1ac46613)"><path fill="#ffd21f" d="M 0.417969 0.925781 L 27.082031 0.925781 L 27.082031 26.300781 L 0.417969 26.300781 Z M 0.417969 0.925781 " fill-opacity="1" fill-rule="nonzero"/></g></g></g></g></g></g></svg>