<?xml version="1.0" standalone="no"?><!DOCTYPE svg PUBLIC "-//W3C//DTD SVG 1.1//EN" "http://www.w3.org/Graphics/SVG/1.1/DTD/svg11.dtd"><svg t="1768565475033" class="icon" viewBox="0 0 1024 1024" version="1.1" xmlns="http://www.w3.org/2000/svg" p-id="99792" xmlns:xlink="http://www.w3.org/1999/xlink" width="200" height="200"><path d="M512 1024C229.2224 1024 0 794.7776 0 512 0 229.248 229.2224 0 512 0s512 229.248 512 512c0 282.7776-229.2224 512-512 512" fill="#002F9F" p-id="99793"></path><path d="M345.7536 161.3312l10.1888 30.5664a3.6864 3.6864 0 0 0 3.5072 2.5344h32.1536a3.6864 3.6864 0 0 1 3.456 2.56 3.7376 3.7376 0 0 1-1.28 4.096l-26.0096 18.9184a3.712 3.712 0 0 0-1.3312 4.096l10.1888 30.592a3.6864 3.6864 0 0 1-1.3824 4.096 3.6864 3.6864 0 0 1-4.352 0l-26.0096-18.8672a3.7376 3.7376 0 0 0-4.352 0l-25.984 18.8928a3.712 3.712 0 1 1-6.272-4.0192l10.1888-30.5664a3.712 3.712 0 0 0-1.3312-4.1216l-26.24-18.7904c-1.28-0.9728-1.7408-2.6112-1.28-4.1216a3.6864 3.6864 0 0 1 3.4816-2.56h32.128c1.6128 0 3.0208-1.024 3.5328-2.56l10.1632-30.5408a3.712 3.712 0 0 1 3.328-2.3296 3.712 3.712 0 0 1 3.5072 2.1248m-128.256 123.008l10.1888 30.5664c0.512 1.5104 1.92 2.5344 3.5072 2.5344h32.1536a3.7632 3.7632 0 0 1 3.4816 2.56 3.7376 3.7376 0 0 1-1.28 4.096l-26.0352 18.9184a3.712 3.712 0 0 0-1.3312 4.096l10.1888 30.592a3.712 3.712 0 0 1-5.7088 4.096l-26.0096-18.8672a3.7376 3.7376 0 0 0-4.352 0l-26.2656 19.0464a3.7376 3.7376 0 0 1-5.7088-4.1216l10.1888-30.5664a3.6864 3.6864 0 0 0-1.3312-4.1216l-26.0096-18.8928a3.712 3.712 0 0 1 2.176-6.6816h32.1536c1.5872 0 2.9952-1.024 3.5072-2.56l10.1888-30.5408a3.6864 3.6864 0 0 1 6.2976-0.1536M170.752 455.9872l10.1888 30.5664c0.512 1.5104 1.92 2.5344 3.5072 2.5344H216.576a3.712 3.712 0 1 1 2.176 6.656l-26.0352 18.9184a3.7376 3.7376 0 0 0-1.3056 4.096l10.1888 30.592a3.7376 3.7376 0 0 1-5.7088 4.096l-26.0352-18.8672a3.6608 3.6608 0 0 0-4.352 0l-26.0096 18.8928a3.6864 3.6864 0 0 1-4.352-0.0256 3.6864 3.6864 0 0 1-1.3312-4.096l10.1888-30.5664a3.712 3.712 0 0 0-1.3312-4.1216l-26.8032-18.944a3.712 3.712 0 0 1-1.28-4.1216 3.6864 3.6864 0 0 1 3.4816-2.56h32.256c1.6384 0 3.0464-1.024 3.5584-2.56l10.1632-30.5408a3.6864 3.6864 0 0 1 3.3792-2.048c1.408 0 2.688 0.8192 3.3024 2.0992m46.7456 171.392l10.1888 30.5408c0.512 1.536 1.92 2.56 3.5072 2.56h32.1536a3.712 3.712 0 1 1 2.2016 6.656l-26.0352 18.9184a3.712 3.712 0 0 0-1.3312 4.096l10.1888 30.592a3.712 3.712 0 0 1-5.7088 4.096l-26.0096-18.8928a3.84 3.84 0 0 0-4.352 0l-26.2656 19.072a3.7376 3.7376 0 0 1-5.7088-4.1472l10.1888-30.5408a3.712 3.712 0 0 0-1.3312-4.1472l-26.0096-18.8672a3.712 3.712 0 0 1 2.176-6.6816h32.1536a3.7632 3.7632 0 0 0 3.5072-2.56l10.1888-30.5408a3.6864 3.6864 0 0 1 6.2976-0.1536m123.0592 129.1008l10.1888 30.5664c0.512 1.5104 1.92 2.56 3.5328 2.56h32.128c1.536 0 2.9696 1.024 3.456 2.5344 0.512 1.5104 0 3.1744-1.28 4.096l-26.0096 18.944a3.6608 3.6608 0 0 0-1.3312 4.096l10.1888 30.5664a3.6864 3.6864 0 0 1-1.3824 4.096 3.6864 3.6864 0 0 1-4.352 0l-25.984-18.8672a3.7632 3.7632 0 0 0-4.352 0l-26.0096 18.8928a3.6864 3.6864 0 0 1-4.352-0.0256 3.6352 3.6352 0 0 1-1.3568-4.096l10.1888-30.5664a3.6608 3.6608 0 0 0-1.3312-4.096l-26.0096-18.944a3.712 3.712 0 0 1-1.3056-4.096 3.712 3.712 0 0 1 3.4816-2.56h32.128a3.7376 3.7376 0 0 0 3.5328-2.56l10.1888-30.5408a3.712 3.712 0 0 1 6.0416 0m172.3648 44.16l10.1888 30.5664a3.7376 3.7376 0 0 0 3.5072 2.56h32.1536a3.712 3.712 0 0 1 3.456 2.5344 3.7376 3.7376 0 0 1-1.28 4.096l-26.0096 18.9184a3.6352 3.6352 0 0 0-1.3312 4.096l10.1888 30.592a3.712 3.712 0 0 1-5.7088 4.096l-26.0352-18.8672a3.7376 3.7376 0 0 0-4.352 0l-26.24 18.9952a3.7376 3.7376 0 0 1-5.7088-4.1216l10.1888-30.5664a3.712 3.712 0 0 0-1.3312-4.1216l-26.0352-18.8928a3.712 3.712 0 0 1 2.2016-6.656h32.128a3.712 3.712 0 0 0 3.5072-2.56l10.1888-30.5664a3.6864 3.6864 0 0 1 3.1488-1.792 3.6864 3.6864 0 0 1 3.1744 1.6896m172.2624-44.16l10.1888 30.5664c0.4864 1.5104 1.8944 2.56 3.5072 2.56h32.128a3.6864 3.6864 0 0 1 2.2016 6.656l-26.0352 18.9184a3.6608 3.6608 0 0 0-1.3312 4.096l10.1888 30.5664a3.6608 3.6608 0 0 1-1.3568 4.096 3.6864 3.6864 0 0 1-4.352 0l-26.0096-18.8672a3.7376 3.7376 0 0 0-4.352 0l-26.0096 18.8928a3.712 3.712 0 1 1-5.7088-4.1216l10.1888-30.5664a3.6864 3.6864 0 0 0-1.3056-4.096l-26.0352-18.944a3.7376 3.7376 0 0 1-1.28-4.096 3.6608 3.6608 0 0 1 3.456-2.56h31.5392a3.712 3.712 0 0 0 3.5072-2.56l10.1888-30.5408a3.7376 3.7376 0 0 1 6.656 0m125.7728-129.1008l10.1888 30.5408c0.512 1.536 1.92 2.56 3.5072 2.56h32.1536a3.712 3.712 0 0 1 2.176 6.656l-26.0608 18.9952a3.7632 3.7632 0 0 0-1.3312 4.1472l10.1888 30.5408a3.7376 3.7376 0 0 1-5.7088 4.1472l-26.0352-18.944a3.7376 3.7376 0 0 0-4.352 0l-26.0096 18.944a3.712 3.712 0 0 1-5.6832-4.1472l10.1888-30.5408a3.7632 3.7632 0 0 0-1.3312-4.1472l-26.0352-18.8672a3.712 3.712 0 1 1 2.2016-6.6816h32.128a3.712 3.712 0 0 0 3.5072-2.56l10.1888-30.5664a3.7888 3.7888 0 0 1 3.0464-1.6384c1.2032 0 2.3552 0.5632 3.072 1.536m42.3168-168.8832l10.1888 30.5664c0.512 1.5104 1.92 2.5344 3.5072 2.5344h32.1536a3.7632 3.7632 0 0 1 3.456 2.56c0.512 1.5104 0 3.1744-1.28 4.096l-26.112 18.8672a3.7632 3.7632 0 0 0-1.3312 4.1472l10.1888 30.5408a3.7632 3.7632 0 0 1-1.3824 4.096 3.7376 3.7376 0 0 1-4.352 0l-25.984-18.8672a3.7632 3.7632 0 0 0-4.352 0l-26.0096 18.8928a3.7376 3.7376 0 0 1-4.352 0 3.6864 3.6864 0 0 1-1.3568-4.1216l10.1888-30.5408a3.7632 3.7632 0 0 0-1.3312-4.1472l-26.0096-18.8928a3.6352 3.6352 0 0 1-1.28-4.096c0.4864-1.536 1.8688-2.56 3.456-2.5856h31.6416c1.5872 0 2.9952-1.024 3.5072-2.56l10.1632-30.5408a3.7632 3.7632 0 0 1 3.328-2.048 3.7632 3.7632 0 0 1 3.328 2.0992m-44.9024-174.1312l10.1888 30.5664c0.512 1.5104 1.92 2.5344 3.5072 2.5344h32.1536a3.7632 3.7632 0 0 1 3.4816 2.56 3.7376 3.7376 0 0 1-1.28 4.096l-26.0352 18.9184a3.712 3.712 0 0 0-1.3312 4.096l10.1888 30.592a3.7376 3.7376 0 0 1-5.7088 4.1216l-26.0096-18.8928a3.7376 3.7376 0 0 0-4.352 0l-26.2656 19.0464a3.7376 3.7376 0 0 1-5.7088-4.1216l10.1888-30.5664a3.712 3.712 0 0 0-1.3312-4.1216l-26.0096-18.8928a3.712 3.712 0 1 1 2.176-6.6816h32.1536c1.5872 0 2.9952-1.024 3.5072-2.56l10.1888-30.5408a3.6864 3.6864 0 0 1 6.2976-0.1536m-123.136-123.008l10.1888 30.5664a3.6608 3.6608 0 0 0 3.5072 2.5344h32.128a3.712 3.712 0 0 1 2.2016 6.656l-26.0352 18.9184a3.712 3.712 0 0 0-1.3312 4.096l10.1888 30.592a3.6608 3.6608 0 0 1-1.3568 4.096 3.6864 3.6864 0 0 1-4.352 0l-26.0096-18.8672a3.7376 3.7376 0 0 0-4.352 0l-26.0096 18.8928a3.712 3.712 0 1 1-5.7088-4.1216l10.1888-30.5664a3.7376 3.7376 0 0 0-1.3056-4.1216l-26.6496-18.688a3.712 3.712 0 1 1 2.2016-6.6816h32.128c1.5872 0 3.0208-1.024 3.5072-2.56l10.1888-30.5408a3.712 3.712 0 1 1 6.6816-0.2048m-169.6768-46.592l10.1888 30.5664c0.512 1.5104 1.92 2.5344 3.5328 2.5344h32.128a3.712 3.712 0 1 1 2.2016 6.656l-26.112 18.816a3.712 3.712 0 0 0-1.3056 4.096l10.1888 30.592a3.7376 3.7376 0 0 1-5.7088 4.1216l-26.0096-18.8928a3.6864 3.6864 0 0 0-4.352 0l-26.0096 18.8928a3.7376 3.7376 0 0 1-5.7088-4.1216l10.1888-30.5664a3.712 3.712 0 0 0-1.3312-4.1216l-26.0096-18.944c-1.28-0.9216-1.792-2.5856-1.28-4.096a3.712 3.712 0 0 1 3.456-2.56h32.128c1.6128 0 3.0208-1.024 3.5328-2.56l10.1888-30.5152a3.6608 3.6608 0 0 1 6.0928 0.1024" fill="#FFC911" p-id="99794"></path></svg>