<?xml version="1.0" standalone="no"?><!DOCTYPE svg PUBLIC "-//W3C//DTD SVG 1.1//EN" "http://www.w3.org/Graphics/SVG/1.1/DTD/svg11.dtd"><svg t="1768565287334" class="icon" viewBox="0 0 1024 1024" version="1.1" xmlns="http://www.w3.org/2000/svg" p-id="86866" xmlns:xlink="http://www.w3.org/1999/xlink" width="200" height="200"><path d="M1024.000427 512c0-62.634667-11.264-122.602667-31.829334-178.090667L512.000427 311.68 31.82976 333.888A510.848 510.848 0 0 0 0.000427 512c0 62.634667 11.264 122.624 31.829333 178.112L512.000427 712.362667l480.170666-22.272A511.232 511.232 0 0 0 1024.000427 512z" fill="#FADA61" p-id="86867"></path><path d="M512.000427 1024c220.16 0 407.808-138.901333 480.170666-333.888H31.82976C104.192427 885.098667 291.840427 1024 512.000427 1024z" fill="#516D36" p-id="86868"></path><path d="M31.82976 333.909333h960.341333C919.808427 138.922667 732.160427 0.042667 512.000427 0.042667 291.840427 0 104.192427 138.944 31.82976 333.930667z" fill="#C72A31" p-id="86869"></path><path d="M559.915093 463.36h166.272l-134.869333 98.581333 50.069333 150.442667-132.821333-89.386667-132.8 89.386667 49.792-150.442667-133.546667-98.581333h166.250667l50.304-151.701333 51.349333 151.68" fill="#1F2328" p-id="86870"></path></svg>