<?xml version="1.0" standalone="no"?><!DOCTYPE svg PUBLIC "-//W3C//DTD SVG 1.1//EN" "http://www.w3.org/Graphics/SVG/1.1/DTD/svg11.dtd"><svg t="1768483547352" class="icon" viewBox="0 0 1024 1024" version="1.1" xmlns="http://www.w3.org/2000/svg" p-id="2718" xmlns:xlink="http://www.w3.org/1999/xlink" width="200" height="200"><path d="M34.356966 393.992828a494.344828 494.344828 0 1 1 359.600551 595.685517A491.237517 491.237517 0 0 1 34.392276 393.957517" fill="#F7F8F8" p-id="2719"></path><path d="M967.432828 326.62069H586.151724v73.516138h405.362759a510.411034 510.411034 0 0 0-24.081655-73.516138m-97.633104-152.611311H586.151724v75.387587h342.333793a494.344828 494.344828 0 0 0-58.721103-75.387587M156.70731 853.733517H867.928276a549.958621 549.958621 0 0 0 61.793103-75.422896H97.385931c17.902345 27.224276 38.629517 52.506483 61.793103 75.387586M630.042483 34.356966A501.583448 501.583448 0 0 0 586.151724 25.070345v73.551448h193.394759a470.227862 470.227862 0 0 0-149.539311-61.793103m370.758621 441.202758H586.151724v75.352276h416.485517c2.153931-25.070345 2.153931-50.281931 0-75.352276M57.803034 701.687172h908.393932a442.438621 442.438621 0 0 0 23.481379-71.68v-3.672275H33.121103c6.002759 25.776552 14.265379 51.023448 24.717242 75.352275m336.154483 287.955862c28.424828 8.297931 57.626483 13.876966 87.11062 16.701794h61.793104a483.222069 483.222069 0 0 0 231.741793-75.387587H248.125793a487.529931 487.529931 0 0 0 145.831724 61.793104" fill="#E72D14" p-id="2720"></path><path d="M548.440276 523.122759l-10.487173-7.415173-10.487172 7.415173 3.672276-12.358621-10.487173-7.415172h12.994207l4.307862-12.994207 4.343173 12.994207h12.958896l-10.522482 7.415172 3.707586 12.358621zM496.534069 126.411034l3.742897 14.830345-10.522483-8.050758-10.487173 8.050758 3.672276-12.958896-10.487172-7.415173h12.958896l4.343173-12.994207 4.343172 12.994207h12.958897l-10.487173 5.543724z m0 113.699311l3.742897 12.358621-10.522483-8.050759-10.487173 8.050759 3.672276-12.358621-10.487172-8.050759h12.958896l4.343173-12.35862 4.343172 12.35862h12.958897l-10.487173 8.050759z m0 110.592l4.343172 12.994207-11.122758-8.050759-10.487173 8.050759 4.307862-12.994207-11.122758-7.415173h13.594483l3.707586-12.35862 4.343172 12.35862h11.723035l-9.251311 7.415173z m0 123.586207l-10.487172-7.415173-10.487173 7.415173 3.707586-12.358621-8.651034-11.723034h12.958896l4.307862-12.358621 3.707587 12.358621h13.629793l-11.158069 8.015448 2.471724 16.101517z m-50.635035-292.899311l4.307863 12.358621-10.487173-7.415172-11.158069 7.415172 4.343173-12.358621-10.487173-7.415172h12.958897l4.343172-12.958897 3.672276 12.994207h13.629793l-11.158069 7.415173z m0 109.991725l4.307863 12.35862-10.487173-7.415172-11.158069 7.415172 4.343173-12.35862-10.487173-8.015449h12.958897l4.343172-12.35862 3.672276 12.35862h13.629793l-11.158069 8.015449z m0 112.463448l4.307863 12.35862-10.487173-8.015448-11.158069 8.015448 4.343173-12.35862-10.487173-8.015448h12.958897l4.343172-12.358621 3.672276 12.358621h13.629793l-11.158069 8.015448z m4.307863 119.278345l-10.487173-7.415173-11.158069 7.415173 4.343173-12.358621-10.487173-7.415172h12.958897l4.343172-12.994207 3.672276 12.994207h13.629793l-11.158069 8.651034 4.343173 11.122759zM397.665103 126.411034l4.343173 14.830345-10.487173-8.050758-11.122758 8.050758 4.307862-12.958896-10.487173-7.415173H388.413793l4.343173-12.994207 3.672275 12.994207h13.629793l-12.35862 5.543724z m0 113.699311l4.343173 12.358621-10.487173-8.050759-11.122758 8.050759 4.307862-12.358621-10.487173-8.050759H388.413793l4.343173-12.35862 3.672275 12.35862h13.629793l-12.35862 8.050759z m0 110.592l3.707587 12.994207-12.958897-8.050759-10.487172 8.050759 3.672276-12.994207-10.487173-7.415173H388.413793v-12.35862l4.343173 12.35862h12.958896l-8.050759 7.415173z m0 123.586207L388.413793 465.672828l-11.122759 7.415172 4.307863-12.358621-9.251311-10.487172H388.413793v-9.886897l3.707586 12.358621h12.958897l-10.487173 8.015448 3.072 13.629793zM345.158621 72.704l4.343172 12.958897-8.651034-6.179311-10.522483 8.050759 4.307862-12.994207-8.015448-10.487172h12.958896l3.707586-12.358621 4.343173 12.358621h12.958896l-15.43062 8.651034z m0 109.956414l4.343172 12.35862-11.158069-7.415172-10.487172 7.415172 4.343172-12.35862-5.579034-8.615724h12.958896l3.707586-12.994207 4.343173 12.994207h12.958896l-15.43062 8.615724z m0 109.991724l4.343172 12.358621-11.158069-7.415173-10.487172 7.415173 4.343172-12.358621-5.579034-9.25131h12.958896l3.707586-12.358621 4.343173 12.358621h12.958896l-15.43062 9.25131z m0 112.463448l4.343172 12.358621-11.158069-8.015448-10.487172 8.015448 4.343172-12.358621-5.579034-9.25131h12.958896l3.707586-12.358621 4.343173 12.358621h12.958896l-15.43062 9.25131z m4.343172 119.278345l-11.158069-7.415172-10.487172 7.415172 4.343172-12.358621-5.579034-8.651034h12.958896l3.707586-12.994207 4.343173 12.994207h12.958896l-12.958896 8.651034 1.871448 12.358621zM299.431724 122.703448l4.307862 12.358621-11.122758-7.415172-10.487173 7.415172 4.343173-12.358621-11.158069-8.050758h13.594482l3.707587-12.358621 4.343172 12.358621h12.958897l-10.487173 8.050758z m0 113.099035l4.307862 12.35862-11.122758-7.415172-10.487173 7.415172 4.343173-12.35862-11.158069-7.415173h13.594482l3.707587-12.35862 4.343172 12.35862h12.958897l-10.487173 7.415173z m0 111.227586l4.307862 12.358621-10.487172-7.415173-11.122759 7.415173 4.343173-12.358621L274.714483 338.97931h12.994207l4.307862-12.35862 3.707586 12.35862h13.594483l-9.886897 8.050759z m0 123.586207l-10.522483-8.050759-10.487172 8.050759 4.343172-12.358621-9.28662-8.050758h13.594482l3.707587-12.358621 4.343172 12.358621h12.958897l-10.487173 8.015448 1.836138 12.358621z m-50.070069-289.191724l3.742897 12.35862-10.522483-7.415172-10.522483 7.415172 4.343173-12.35862-11.122759-7.415173h13.594483l3.707586-12.994207 4.307862 12.994207h12.994207l-10.522483 7.415173z m0 109.956414l3.742897 12.35862-10.522483-7.415172-10.522483 7.415172 4.343173-12.35862-11.122759-8.015449h13.594483l3.707586-12.35862 4.307862 12.35862h12.994207l-10.522483 8.015449z m0 112.463448l3.742897 12.35862-10.522483-8.015448-10.522483 8.015448 4.343173-12.35862-11.122759-8.015448h13.594483l3.707586-12.358621 4.307862 12.358621h12.994207l-10.522483 8.015448z m3.742897 119.278345l-10.522483-7.415173-10.522483 7.415173 4.343173-12.358621-11.122759-7.415172h13.594483l3.707586-12.994207 4.307862 12.994207h12.994207l-10.522483 8.651034 3.742897 11.122759zM203.034483 235.166897l3.707586 12.35862-10.522483-8.015448-10.487172 8.015448 3.707586-12.35862-10.487172-8.050759H190.675862l3.707586-12.358621 4.307862 12.358621h12.994207l-8.651034 8.050759z m0 110.62731l4.343172 12.358621-10.522483-7.415173-11.122758 7.415173 4.343172-12.358621-10.522483-7.415173h12.994207l1.235862-11.758344 3.672276 12.958896h12.994207l-7.415172 6.179311z m0 123.586207l-10.487173-7.415173-10.522482 7.415173 3.707586-12.358621-10.487173-6.814896h12.958897l4.343172-12.358621 4.307862 12.358621h12.994207l-10.522482 8.015448 3.707586 11.158069z m232.342069-405.362759l4.343172-12.358621 3.672276 12.358621h13.629793l-11.158069 7.415173 4.343173 12.958896-10.487173-4.943448-11.158069 8.050758 4.343173-12.994206-10.487173-7.415173 12.958897-3.072z m98.268689 331.811311l4.307862-12.358621 4.343173 12.358621h12.958896l-10.522482 8.015448 3.707586 12.35862-10.487173-8.015448-10.487172 8.015448 3.672276-12.35862-10.487173-8.015448h12.994207z m0-112.463449l4.307862-12.35862 4.343173 12.35862h12.958896l-10.522482 8.015449 3.707586 12.35862-10.487173-7.415172-10.487172 7.415172 3.672276-12.35862-10.487173-8.015449h12.994207z m0-109.391448l4.307862-12.958897 4.343173 12.994207h12.958896l-10.522482 7.415173 3.707586 12.35862-10.487173-7.415172-10.487172 7.415172 3.672276-12.35862-10.487173-7.415173h12.994207z m0-109.956414l4.307862-12.358621 4.343173 12.358621h12.958896l-10.522482 7.415173 3.707586 12.958896-10.487173-4.943448-10.487172 8.050758 3.672276-12.994206-10.487173-7.415173 12.994207-3.072zM151.128276 291.416276l3.707586 12.358621-10.487172-7.415173-10.522483 7.415173 3.707586-12.358621-10.487172-8.050759H141.241379l4.307862-12.35862 3.742897 12.35862h13.594483l-11.758345 8.015449z m0 112.428138l3.707586 12.35862-10.487172-8.015448-10.522483 8.015448 3.707586-12.35862-10.487172-8.015448H141.241379l4.307862-12.358621 3.742897 12.358621h13.594483l-11.758345 8.015448z m3.707586 119.278345l-10.487172-7.415173-10.522483 7.415173 3.707586-12.358621-10.487172-7.415172H141.241379l4.307862-12.994207 3.742897 12.994207h13.594483l-11.758345 8.651034 3.707586 11.122759zM101.693793 343.922759l3.707586 12.35862-10.487172-7.415172-10.522483 7.415172 3.707586-12.35862-8.651034-7.415173h13.594483l1.871448-9.886896 4.307862 12.958896h12.994207l-10.522483 4.343173z m3.10731 123.586207l-10.522482-8.050759-11.122759 8.050759 4.343172-12.358621-8.050758-9.286621h12.958896l4.343173-12.358621 3.707586 12.358621h12.994207l-10.522483 8.050759 1.871448 13.594483z m-48.19862 56.849655l-10.522483-7.415173-11.122759 7.415173 4.307862-12.358621-10.487172-7.415172h12.994207l4.307862-12.958897 3.707586 12.958897h12.958897l-10.487173 7.415172 4.343173 12.358621zM586.151724 25.070345L540.424828 17.655172 450.206897 23.234207a494.344828 494.344828 0 0 0-247.172414 105.048276v5.543724-3.10731c-16.595862 13.135448-32.132414 27.61269-46.362483 43.290482h7.415172l-10.487172 7.415173 3.707586 12.35862-10.522483-7.415172L141.241379 189.40469c-9.886897 11.122759-19.173517 23.481379-28.424827 35.84l-6.779586 9.28662v8.615724l-6.214621-3.672275a484.457931 484.457931 0 0 0-65.465379 154.482758H42.372414l4.307862-12.35862 3.742896 12.35862h12.958897l-10.522483 8.015449 4.343173 12.35862-10.522483-8.015448-11.087448 8.015448 4.307862-12.35862-6.179311-4.943449a475.206621 475.206621 0 0 0-11.723034 152.611311H586.151724V25.070345z" fill="#073470" p-id="2721"></path></svg>