<?xml version="1.0" standalone="no"?><!DOCTYPE svg PUBLIC "-//W3C//DTD SVG 1.1//EN" "http://www.w3.org/Graphics/SVG/1.1/DTD/svg11.dtd"><svg t="1768483761008" class="icon" viewBox="0 0 1024 1024" version="1.1" xmlns="http://www.w3.org/2000/svg" p-id="7210" xmlns:xlink="http://www.w3.org/1999/xlink" width="200" height="200"><path d="M955.477561 255.957493H68.523079C157.056394 102.933525 322.496359 0.000213 512.00032 0.000213c189.503961 0 354.943926 102.933312 443.477241 255.95728z" fill="#003082" p-id="7211"></path><path d="M1024.000213 511.914773H0.000427c0-93.247981 24.959995-180.671962 68.522652-255.95728h886.954482A509.61056 509.61056 0 0 1 1024.000213 511.914773z" fill="#FFFFFF" p-id="7212"></path><path d="M68.523079 768.04272A509.653227 509.653227 0 0 1 0.000427 512.08544h1023.999786c0 93.247981-24.959995 180.671962-68.522652 255.95728H68.523079z" fill="#2A9828" p-id="7213"></path><path d="M955.477561 768.04272C866.944246 921.066688 701.504281 1024 512.00032 1024c-189.482627 0-354.943926-102.933312-443.477241-255.95728h886.954482z" fill="#FECE00" p-id="7214"></path><path d="M635.733628 15.061544v993.898459c-39.615992 9.813331-81.06665 15.039997-123.733308 15.039997-43.178658 0-85.119982-5.333332-125.183974-15.402663V15.402877A513.06656 513.06656 0 0 1 512.00032 0.000213c42.666658 0 84.117316 5.226666 123.733308 15.061331z" fill="#D31134" p-id="7215"></path><path d="M280.427035 61.9522l20.949329 61.439988 67.391986-0.213334-54.570655 40.106659 20.245329 60.88532-53.823989-36.138659-53.653322 36.309326 20.053329-61.055987-54.186656-39.722659 67.370653-0.192 20.223996-61.418654z" fill="#FECE00" p-id="7216"></path></svg>